<?xml version="1.0" encoding="utf-8"?>
<!-- Generator: Adobe Illustrator 24.0.1, SVG Export Plug-In . SVG Version: 6.00 Build 0)  -->
<svg version="1.1" id="Layer_1" xmlns="http://www.w3.org/2000/svg" xmlns:xlink="http://www.w3.org/1999/xlink" x="0px" y="0px"
	 viewBox="0 0 40.7 38.9" style="enable-background:new 0 0 40.7 38.9;" xml:space="preserve">
<style type="text/css">
	.st0{fill:#6F3987;}
</style>
<path class="st0" d="M24.4,22.4c-0.8,1-1.5,1.7-2.3,2.1c-0.7,0.4-1.6,0.5-2.5,0.5c-1.7,0-2.9-0.5-4.1-1.6c-1.2-1.1-1.7-2.4-1.7-4
	s0.6-2.9,1.7-4c1.2-1.1,2.4-1.6,4.1-1.6c0.8,0,1.7,0.2,2.5,0.5c0.8,0.4,1.6,1.1,2.3,2l1.4,2h15l-4.1-7.3c-3.9-7.2-9.9-11-17.3-11
	c-4.7,0-8.9,1.5-12.4,4.4c-3.9,3.1-6.2,7.4-6.7,12.3c-0.1,0.8-0.1,1.6-0.1,2.6c0,0.9,0,1.7,0.1,2.6c0.6,4.9,2.9,9.2,6.7,12.3
	c3.5,2.9,7.7,4.4,12.4,4.4c7.4,0,13.4-3.8,17.3-11l4.1-7.3h-15L24.4,22.4z"/>
</svg>
